<mxfile host="app.diagrams.net" modified="2022-09-19T19:57:05.420Z" agent="5.0 (Macintosh; Intel Mac OS X 10_15_7) AppleWebKit/605.1.15 (KHTML, like Gecko) Version/14.1.1 Safari/605.1.15" etag="zV8ipbf02vi3GiIjkpeG" version="20.3.3" type="github">
  <diagram id="_gan0D3tpQ5ZMszMg-gJ" name="Page-1">
    <mxGraphModel dx="830" dy="563" grid="1" gridSize="10" guides="1" tooltips="1" connect="1" arrows="1" fold="1" page="1" pageScale="1" pageWidth="850" pageHeight="1100" math="0" shadow="0">
      <root>
        <mxCell id="0" />
        <mxCell id="1" parent="0" />
        <mxCell id="_0PC9jBmni49mjj_3t5u-41" value="" style="edgeStyle=orthogonalEdgeStyle;rounded=0;orthogonalLoop=1;jettySize=auto;html=1;fontSize=12;fontColor=#000000;" parent="1" source="_0PC9jBmni49mjj_3t5u-10" edge="1">
          <mxGeometry relative="1" as="geometry">
            <mxPoint x="380" y="200" as="targetPoint" />
          </mxGeometry>
        </mxCell>
        <mxCell id="_0PC9jBmni49mjj_3t5u-10" value="начало" style="rounded=1;whiteSpace=wrap;html=1;fontColor=#000000;" parent="1" vertex="1">
          <mxGeometry x="320" y="20" width="120" height="40" as="geometry" />
        </mxCell>
        <mxCell id="_0PC9jBmni49mjj_3t5u-49" value="" style="edgeStyle=orthogonalEdgeStyle;rounded=0;orthogonalLoop=1;jettySize=auto;html=1;fontSize=12;fontColor=#000000;exitX=0.508;exitY=0.913;exitDx=0;exitDy=0;exitPerimeter=0;" parent="1" source="_0PC9jBmni49mjj_3t5u-51" target="_0PC9jBmni49mjj_3t5u-47" edge="1">
          <mxGeometry relative="1" as="geometry">
            <mxPoint x="380" y="470" as="sourcePoint" />
          </mxGeometry>
        </mxCell>
        <mxCell id="_0PC9jBmni49mjj_3t5u-47" value="завершение" style="rounded=1;whiteSpace=wrap;html=1;fontColor=#000000;" parent="1" vertex="1">
          <mxGeometry x="520" y="420" width="120" height="40" as="geometry" />
        </mxCell>
        <mxCell id="_0PC9jBmni49mjj_3t5u-52" value="" style="edgeStyle=orthogonalEdgeStyle;rounded=0;orthogonalLoop=1;jettySize=auto;html=1;fontSize=12;fontColor=#000000;" parent="1" source="_0PC9jBmni49mjj_3t5u-50" target="_0PC9jBmni49mjj_3t5u-51" edge="1">
          <mxGeometry relative="1" as="geometry" />
        </mxCell>
        <mxCell id="_0PC9jBmni49mjj_3t5u-62" value="" style="edgeStyle=orthogonalEdgeStyle;rounded=0;orthogonalLoop=1;jettySize=auto;html=1;fontSize=12;fontColor=#000000;" parent="1" source="_0PC9jBmni49mjj_3t5u-50" target="_0PC9jBmni49mjj_3t5u-53" edge="1">
          <mxGeometry relative="1" as="geometry" />
        </mxCell>
        <mxCell id="_0PC9jBmni49mjj_3t5u-50" value="count &amp;gt; input" style="rhombus;whiteSpace=wrap;html=1;fontSize=12;fontColor=#000000;" parent="1" vertex="1">
          <mxGeometry x="315" y="200" width="130" height="80" as="geometry" />
        </mxCell>
        <mxCell id="_0PC9jBmni49mjj_3t5u-51" value="print(N)" style="shape=document;whiteSpace=wrap;html=1;boundedLbl=1;fontColor=#000000;" parent="1" vertex="1">
          <mxGeometry x="530" y="215" width="100" height="50" as="geometry" />
        </mxCell>
        <mxCell id="_0PC9jBmni49mjj_3t5u-56" value="" style="edgeStyle=orthogonalEdgeStyle;rounded=0;orthogonalLoop=1;jettySize=auto;html=1;fontSize=12;fontColor=#000000;" parent="1" source="_0PC9jBmni49mjj_3t5u-53" target="_0PC9jBmni49mjj_3t5u-55" edge="1">
          <mxGeometry relative="1" as="geometry" />
        </mxCell>
        <mxCell id="_0PC9jBmni49mjj_3t5u-53" value="N = N*count" style="whiteSpace=wrap;html=1;fontColor=#000000;" parent="1" vertex="1">
          <mxGeometry x="320" y="310" width="120" height="60" as="geometry" />
        </mxCell>
        <mxCell id="_0PC9jBmni49mjj_3t5u-57" style="edgeStyle=orthogonalEdgeStyle;rounded=0;orthogonalLoop=1;jettySize=auto;html=1;entryX=0;entryY=0.5;entryDx=0;entryDy=0;fontSize=12;fontColor=#000000;" parent="1" source="_0PC9jBmni49mjj_3t5u-55" target="_0PC9jBmni49mjj_3t5u-50" edge="1">
          <mxGeometry relative="1" as="geometry">
            <Array as="points">
              <mxPoint x="250" y="430" />
              <mxPoint x="250" y="240" />
            </Array>
          </mxGeometry>
        </mxCell>
        <mxCell id="_0PC9jBmni49mjj_3t5u-55" value="count= count+1" style="whiteSpace=wrap;html=1;fontColor=#000000;" parent="1" vertex="1">
          <mxGeometry x="320" y="400" width="120" height="60" as="geometry" />
        </mxCell>
        <mxCell id="_0PC9jBmni49mjj_3t5u-58" value="да" style="text;html=1;strokeColor=none;fillColor=none;align=center;verticalAlign=middle;whiteSpace=wrap;rounded=0;fontSize=12;fontColor=#000000;" parent="1" vertex="1">
          <mxGeometry x="450" y="210" width="60" height="30" as="geometry" />
        </mxCell>
        <mxCell id="_0PC9jBmni49mjj_3t5u-59" value="нет" style="text;html=1;strokeColor=none;fillColor=none;align=center;verticalAlign=middle;whiteSpace=wrap;rounded=0;fontSize=12;fontColor=#000000;" parent="1" vertex="1">
          <mxGeometry x="380" y="280" width="35" height="15" as="geometry" />
        </mxCell>
        <mxCell id="SL7sfU7gUdRLE5RY2uVJ-1" value="count = 1&lt;br&gt;N = 1&lt;br&gt;input = 10" style="shape=parallelogram;perimeter=parallelogramPerimeter;whiteSpace=wrap;html=1;fixedSize=1;" vertex="1" parent="1">
          <mxGeometry x="320" y="90" width="120" height="60" as="geometry" />
        </mxCell>
      </root>
    </mxGraphModel>
  </diagram>
</mxfile>
